<svg version="1.2" baseProfile="tiny-ps" xmlns="http://www.w3.org/2000/svg" viewBox="0 0 40 39" width="40" height="39">
	<title>menu</title>
	<style>
		tspan { white-space:pre }
		.shp0 { fill: #f5c506 } 
	</style>
	<g id="menu">
		<g id="logo">
			<g id="Group 1">
				<path id="Shape 8 copy 3" class="shp0" d="M0 25.84L6.23 19.5L0 13.16L5.29 13.16L11.53 19.5L5.29 25.84L0 25.84ZM8.03 25.84L14.27 19.5L8.03 13.16L13.32 13.16L19.56 19.5L13.32 25.84L8.03 25.84ZM39.59 25.84L33.35 19.5L39.59 13.16L34.3 13.16L28.06 19.5L34.3 25.84L39.59 25.84ZM31.56 25.84L25.32 19.5L31.56 13.16L26.27 13.16L20.03 19.5L26.27 25.84L31.56 25.84ZM13.36 0L19.79 6.14L26.23 0L26.23 5.21L19.79 11.36L13.36 5.21L13.36 0ZM13.36 7.91L19.79 14.05L26.23 7.91L26.23 13.12L19.79 19.27L13.36 13.12L13.36 7.91ZM13.36 39L19.79 32.86L26.23 39L26.23 33.79L19.79 27.64L13.36 33.79L13.36 39ZM13.36 31.09L19.79 24.94L26.23 31.09L26.23 25.88L19.79 19.73L13.36 25.88L13.36 31.09Z" />
			</g>
		</g>
	</g>
</svg>