<svg version="1.2" baseProfile="tiny-ps" xmlns="http://www.w3.org/2000/svg" viewBox="0 0 38 37" width="38" height="37">
	<title>menu</title>
	<style>
		tspan { white-space:pre }
		.shp0 { opacity: 0.502;fill: #f5c506 } 
	</style>
	<g id="menu">
		<g id="logo">
			<g id="Group 1">
				<path id="Shape 8 copy 4" class="shp0" d="M0.04 9.47L8.99 9.14L8.93 0.31L12.76 3.91L12.82 12.74L3.86 13.08L0.04 9.47ZM5.84 14.94L14.8 14.61L14.74 5.77L18.56 9.38L18.62 18.21L9.67 18.54L5.84 14.94ZM28.65 36.43L28.59 27.6L37.55 27.27L33.73 23.66L24.77 24L24.83 32.83L28.65 36.43ZM22.85 30.96L22.79 22.13L31.75 21.8L27.92 18.19L18.96 18.53L19.02 27.36L22.85 30.96ZM27.82 -0.11L28.16 8.71L37.13 8.66L33.47 12.42L24.51 12.48L24.17 3.66L27.82 -0.11ZM22.27 5.61L22.61 14.43L31.58 14.37L27.92 18.14L18.96 18.2L18.62 9.38L22.27 5.61ZM0.46 28.08L9.42 28.02L9.76 36.85L13.42 33.08L13.08 24.25L4.12 24.31L0.46 28.08ZM6.01 22.36L14.97 22.3L15.31 31.13L18.97 27.36L18.63 18.54L9.67 18.6L6.01 22.36Z" />
			</g>
		</g>
	</g>
</svg>